<svg version="1.2" xmlns="http://www.w3.org/2000/svg" viewBox="0 0 320 120" width="320" height="120">
	<title>Proyecto nuevo</title>
	<style>
		.s0 { fill: #afefc0 } 
		.s1 { fill: #79b786 } 
		.s2 { fill: #a093f9 } 
		.s3 { fill: #745bef } 
		.s4 { fill: #80c0fc } 
		.s5 { fill: #f8fffa } 
	</style>
	<g id="FlorPollaVioleta copy">
		<g id="&lt;Group&gt;">
			<path id="&lt;Path&gt;" class="s0" d="m150.1 64.7c0 0-23.2-6.3-29.5-17.2-6.4-11-8.6-25.8-8.6-25.8 0 0 27.8 11.2 38.1 43z"/>
			<path id="&lt;Path&gt;" class="s0" d="m131.9 88.1c0 0-11.6 22-23.7 25.5-12.1 3.5-13.9 4.4-15.5 5.7 0 0 4.4-27.2 39.2-31.2z"/>
			<path id="&lt;Path&gt;" class="s1" d="m53 58.6c70.7 12.6 209.9 28.5 267.6 13.6-59.2 18.9-197.8 4-267.6-13.6z"/>
			<path id="&lt;Path&gt;" class="s1" d="m166.9 75.9c-8.5-3.8-16.5-8.7-23.7-14.7-4.2-3.8-8.3-7.9-10.8-12.9 10.4 10.2 23.5 18 34.5 27.6z"/>
			<path id="&lt;Path&gt;" class="s1" d="m111.7 101.3c6.1-5.6 12.9-10.4 20-14.8 7.1-4.4 14.5-8.5 22.5-10.8-13.6 8.6-28.1 18.3-42.5 25.6z"/>
		</g>
		<g id="&lt;Group&gt;">
			<g id="&lt;Group&gt;">
				<path id="&lt;Path&gt;" class="s2" d="m54.5 57.5c0 0-22.3 31.9-30 36.1-7.6 4.1-17.6-3.1-20.9-9.2-3.3-6.2-5.3-15.5 5-20.4 10.2-4.9 32.4-7.5 45.9-6.5z"/>
				<path id="&lt;Path&gt;" class="s3" d="m52.6 57.5c0 0-14.7 14.2-26.2 17.8-14.2 4.3-18.7-11 26.2-17.8z"/>
			</g>
			<g id="&lt;Group&gt;">
				<path id="&lt;Path&gt;" class="s2" d="m54.5 57.5c0 0-38.8-2.9-46.3-7.3-7.5-4.4-6.4-16.7-2.8-22.7 3.5-6 10.6-12.5 20-6.1 9.5 6.3 23.1 24 29.1 36.1z"/>
				<path id="&lt;Path&gt;" class="s3" d="m52.6 57.5c0 0-19.7-5.3-28.6-13.4-11.1-10-0.2-21.7 28.6 13.4z"/>
			</g>
			<g id="&lt;Group&gt;">
				<path id="&lt;Path&gt;" class="s2" d="m54.5 57.5c0 0-17.4-34.8-17.5-43.5 0-8.7 11.1-14 18.1-14 7 0 16.2 2.7 15.5 14.1-0.6 11.3-8.8 32.1-16.1 43.4z"/>
				<path id="&lt;Path&gt;" class="s3" d="m52.6 57.5c0 0-5.5-19.7-3.1-31.5 2.9-14.5 18.5-11.2 3.1 31.5z"/>
			</g>
			<g id="&lt;Group&gt;">
				<path id="&lt;Path&gt;" class="s2" d="m52.6 57.5c0 0 21-32.8 28.4-37.2 7.5-4.5 17.7 2.3 21.3 8.3 3.6 6 6 15.3-4.1 20.6-10.1 5.3-32.1 8.8-45.6 8.3z"/>
				<path id="&lt;Path&gt;" class="s3" d="m52.6 57.5c0 0 14.1-14.8 25.4-18.8 14.1-4.9 19.2 10.2-25.4 18.8z"/>
			</g>
			<g id="&lt;Group&gt;">
				<path id="&lt;Path&gt;" class="s2" d="m52.6 57.5c0 0 38.9 1.3 46.5 5.4 7.7 4.1 7.1 16.4 3.8 22.6-3.4 6.1-10.1 12.9-19.8 6.9-9.7-5.9-24-23.1-30.5-34.9z"/>
				<path id="&lt;Path&gt;" class="s3" d="m52.6 57.5c0 0 19.9 4.5 29.2 12.3 11.4 9.5 1 21.7-29.2-12.3z"/>
			</g>
			<g id="&lt;Group&gt;">
				<path id="&lt;Path&gt;" class="s2" d="m52.6 57.5c0 0 18.8 34.1 19.2 42.8 0.4 8.6-10.5 14.4-17.5 14.7-2 0.1-16.3-1.9-16.1-13.4 0.1-11.4 7.6-32.5 14.4-44.1z"/>
				<path id="&lt;Path&gt;" class="s3" d="m52.6 57.5c0 0 6.3 19.5 4.4 31.3-2.4 14.7-18.1 12-4.4-31.3z"/>
			</g>
			<path id="&lt;Path&gt;" class="s4" d="m51.9 62.7c-2.7-0.4-4.7-2.9-4.3-5.6 0.3-2.8 2.9-4.7 5.6-4.4 2.8 0.4 4.7 2.9 4.4 5.7-0.4 2.7-2.9 4.7-5.7 4.3z"/>
		</g>
		<g id="&lt;Group&gt;" style="opacity: .6;mix-blend-mode: overlay">
			<path id="&lt;Path&gt;" class="s5" d="m57.6 53.7q0.1 0.1 0.2 0.1c5.9-8.8 20-29.6 25.8-33.1 1.8-1.2 3.8-1.6 5.9-1.5-2.9-0.7-5.9-0.5-8.5 1.1-3.7 2.2-10.9 11.6-17.1 20.4-1.9 4.7-4.1 9.2-6.3 13z"/>
			<path id="&lt;Path&gt;" class="s5" d="m52.8 53.6q0.1 0 0.2-0.1c-4.6-9.6-15.3-32.3-15.3-39.1 0-8.7 11.1-14 18.1-14q1.1 0 2.3 0.1c-1.6-0.4-3.3-0.5-4.9-0.5-7 0-18.1 5.3-18 14 0 4.8 5.3 17.6 10.1 28 2.8 3.9 5.4 7.9 7.5 11.6z"/>
			<path id="&lt;Path&gt;" class="s5" d="m85.6 92.8c-8.5-5.2-20.6-19.1-27.8-30.5q-0.1 0.1-0.2 0.2c1.4 2.6 3.3 6.2 5.3 10.2 6.6 8.3 14.2 16.1 20.2 19.7 2.5 1.6 4.8 2.2 6.9 2.3-1.4-0.4-2.8-0.9-4.4-1.9z"/>
			<path id="&lt;Path&gt;" class="s5" d="m60.7 57.9q-0.3 0-0.6 0 0 0.1 0 0.2c7 0.3 19.9 1.1 29.8 2.4-8.8-1.4-21.2-2.2-29.2-2.6z"/>
			<path id="&lt;Path&gt;" class="s5" d="m6.3 50.2c2.9 1.7 10.4 3.2 18.6 4.4-7.2-1.1-13.5-2.5-16-4-7.5-4.4-6.4-16.7-2.8-22.7 2.5-4.3 6.9-8.9 12.8-8.7-7.1-1.9-12.5 3.4-15.4 8.4-3.6 6-4.7 18.2 2.8 22.6z"/>
			<path id="&lt;Path&gt;" class="s5" d="m40.7 101.9c0.2-10 5.9-27.5 12-39.4q-0.3-0.2-0.6-0.4c-1.4 2-3.3 4.6-5.4 7.4-4.6 11-8.4 24-8.5 32.1-0.1 9.6 6.5 12.8 12.8 13.3-5.4-1.1-10.4-4.6-10.3-13z"/>
			<path id="&lt;Path&gt;" class="s5" d="m4.3 84.7c-3.3-6.1-5.3-15.5 5-20.3 9-4.4 27.4-6.9 40.8-6.7q0-0.1 0-0.1 0-0.1 0-0.1-1.1-0.1-2.5-0.3 0 0.1 0 0.1c-13.5-0.2-31.8 2.4-40.9 6.7-10.3 4.9-8.3 14.2-5 20.4 2.6 4.7 9.1 10.1 15.5 10.4-5.5-1.4-10.7-6-12.9-10.1z"/>
		</g>
		<g id="&lt;Group&gt;" style="opacity: .5;mix-blend-mode: multiply">
			<path id="&lt;Path&gt;" class="s2" d="m77.7 23.1c4.2 5.9 6.4 11.9 4.8 16.6-2.4 6.9-8.7 12-13.9 17 11.2-1.3 23-4 29.6-7.5 10.1-5.3 7.7-14.6 4.1-20.6-3.6-6-13.8-12.8-21.3-8.3-0.9 0.5-2 1.5-3.3 2.8z"/>
			<path id="&lt;Path&gt;" class="s2" d="m99.1 62.9c-4.5-2.4-20.1-3.9-32-4.7-3.6 3.7-6.2 7.4-6.2 11.9 6.9 9.1 15.6 18.3 22.2 22.3 9.7 6 16.4-0.8 19.8-6.9 3.3-6.2 3.9-18.5-3.8-22.6z"/>
			<path id="&lt;Path&gt;" class="s2" d="m53.2 0c-2.4 0-5.3 0.7-8.1 1.9 7.9 1.1 16.6 5.8 23.7 11.8 0.3-11-8.7-13.7-15.6-13.7z"/>
			<path id="&lt;Path&gt;" class="s2" d="m71.8 100.3c-0.2-4.3-4.9-14.8-9.6-24.3 2.5 9.4-1.4 26.2-5.4 38.7 6.8-1.3 15.3-6.8 15-14.4z"/>
		</g>
		<g id="&lt;Group&gt;" style="opacity: .4;mix-blend-mode: overlay">
			<path id="&lt;Path&gt;" class="s5" d="m151.2 63.7c4 3 8 5.9 11.9 9-3.9-3.1-7.9-6.1-12-9.2q0 0.1 0.1 0.2z"/>
			<path id="&lt;Path&gt;" class="s5" d="m127 54.1c-1.9-1.6-3.4-3.3-4.5-5.1-6.4-11-8.6-25.8-8.6-25.8 0 0 5.9 2.4 13.2 8-8.2-6.7-15.1-9.5-15.1-9.5 0 0 2.2 14.8 8.6 25.8 1.4 2.4 3.7 4.6 6.4 6.6z"/>
			<path id="&lt;Path&gt;" class="s5" d="m130.3 90.1q1.7-1.1 3.3-2.1c3.5-2.1 7.1-4.2 10.7-6q3.2-2 6.3-4-1.1-0.1-2.3-0.3c-5.8 2.4-11.3 5.5-16.6 8.8q-1.7 1-3.3 2.1c-31.6 5.3-35.7 30.7-35.7 30.7 0.6-0.5 1.3-1 2.7-1.6 2.3-6.9 10.1-23.4 34.9-27.6z"/>
		</g>
	</g>
</svg>