<svg version="1.2" xmlns="http://www.w3.org/2000/svg" viewBox="0 0 177 173" width="177" height="173">
	<title>Proyecto nuevo</title>
	<style>
		.s0 { fill: #664ce5 } 
		.s1 { opacity: .2;mix-blend-mode: multiply;fill: #606060 } 
		.s2 { fill: #745bef } 
		.s3 { fill: #606060 } 
		.s4 { fill: #8174f7 } 
		.s5 { fill: #a093f9 } 
		.s6 { fill: #80c0fc } 
		.s7 { fill: #ffffff } 
	</style>
	<g id="&lt;Group&gt;">
		<g id="&lt;Group&gt;">
			<path id="&lt;Path&gt;" class="s0" d="m31.4 32.1c0 0 2.4-38.2 49.5-25l-7.6 44.7z"/>
			<path id="&lt;Path&gt;" class="s0" d="m18.5 120.5c0 0-35-15.6-6.1-55l39.2 22.7z"/>
			<path id="&lt;Path&gt;" class="s0" d="m95.5 162.9c0 0-26.5 27.8-54-12.7l34.5-29.3z"/>
			<path id="&lt;Path&gt;" class="s0" d="m119.4 16.3c0 0 36.7-11 40.6 37.7l-44.5 8.4z"/>
			<path id="&lt;Path&gt;" class="s0" d="m161.1 97.9c0 0 19.8 32.9-26.5 48.7l-19.1-41.1z"/>
		</g>
		<path id="&lt;Path&gt;" class="s1" d="m130.6 102.6c12.9 3.4 24.4 4 33.5 2.8q-0.4-1.4-0.8-2.7c9.1-2.7 14.1-7.8 13-14.1-1.1-6.1-5.2-9-9.3-10.4-0.7 0.1-1.2 0.1-1.2 0.1q0.3-0.1 0.5-0.3c-4.4-1.3-8.6-0.9-8.6-0.9 8.4-4.5 19.5-19.4 7-26.7-15.9 1.8-41.7 20.6-41.7 20.6q-0.9 0.6-1.7 1.1-1.8-3.7-4.5-6.8l3.6-4.8c11.7-17.6 15.9-34.4 14-44.7-2.9-0.5-5.6-0.7-7.9-0.6-0.7-4.5-2.6-7.8-5.5-9.6-9.3 1.8-12.2 13.8-12.2 13.8-0.5-3-1.9-6.6-3.9-9.8-3.1 3.9-4.2 8.6-4.2 8.6-0.9-5.7-5-13.4-10.5-16.7-1.5 0.5-3 1.3-4.5 2.7-9.1 7.9-1.7 38.9 1.2 49.6-3.3 0.4-6.5 1.3-9.5 2.6-19.7-26.3-43.3-35-49.6-23.4-6.4 11.6 7.2 20.6 7.2 20.6-9.5-1.8-27.5 2.9-22.2 16.6 4.1 10.5 32.1 14.3 44.7 15.5 0 0.5-0.1 1-0.1 1.5q0 3.6 0.7 6.9c-31.3 8.3-48 26.7-39.8 36.9 1.3 1.6 2.7 2.8 4.2 3.5 5.2-0.7 9.5-3.6 9.5-3.6-0.9 1.4-1.7 3.1-2.4 4.9 5.7-0.4 10.5-3.7 10.5-3.7-4.4 6.8-6.8 20.7 1.1 25.3q2.1-0.5 4.2-1.9 1.5 1.8 2.9 3.3c12.9-1.7 28.9-32.9 32.2-39.6 3.1 1 6.5 1.6 10 1.7l-0.2 2.8c-0.9 24.9 6.3 43.3 15.1 48.7 0.3-0.1 0.7-0.1 1-0.3 12.2-5 7.2-20.6 7.2-20.6 2.1 2.5 5.4 5 9 6.6-0.2-3.1-1-5.4-1-5.4 2.5 2.9 6.7 5.8 11 7.4 3.8-0.4 7-2.7 8.6-7.7 0.7-2.3 0.4-5.1-0.7-8.1q3.4-1.5 6.2-3.1c-7.6-14.5-27.2-31.8-27.2-31.8q-0.9-0.9-1.7-1.6c1.9-2.4 3.4-5 4.6-7.8z"/>
		<g id="&lt;Group&gt;">
			<path id="&lt;Path&gt;" class="s2" d="m79.9 56.2c0 0-13.4-43.6-2.3-53.2 11.1-9.7 21.6 5.7 23.1 15.2 0 0 3.8-15.9 16.9-13.8 13.1 2 12.9 27.4-5.3 54.9l-8.7 11.6-18.7-1.4c0 0-2.2-2.5-5-13.3z"/>
			<path id="&lt;Path&gt;" class="s2" d="m114.9 69.8c0 0 36.9-26.8 49.6-19.5 12.8 7.3 1.7 22.2-6.8 26.8 0 0 16.2-1.6 18.6 11.5 2.3 13-21.7 21.1-53.8 12.8l-13.7-4.3-4.8-18.3c0 0 1.7-2.8 10.9-9z"/>
			<path id="&lt;Path&gt;" class="s2" d="m111.4 108.2c0 0 34.2 30.2 29.8 44.2-4.4 14-21.4 6.4-27.6-0.9 0 0 5 15.6-7.2 20.6-12.3 5.1-25.4-16.6-24.2-49.6l1.3-14.4 16.7-8.6c0 0 3.2 1 11.2 8.7z"/>
			<path id="&lt;Path&gt;" class="s2" d="m73 116.7c0 0-19.4 41.3-34.1 41-14.6-0.3-12.1-18.7-6.9-26.8 0 0-13.5 9.2-21.8-1.1-8.3-10.3 8.8-29 40.9-37.2l14.1-2.7 13 13.6c0 0-0.1 3.3-5.2 13.2z"/>
			<path id="&lt;Path&gt;" class="s2" d="m55.6 85c0 0-45.5-2.3-50.8-16-5.4-13.7 12.6-18.4 22.1-16.6 0 0-13.6-9-7.2-20.6 6.4-11.6 30.1-2.8 49.9 23.8l7.9 12-7.7 17.2c0 0-3.1 1.2-14.2 0.2z"/>
		</g>
		<g id="&lt;Group&gt;" style="opacity: .2;mix-blend-mode: multiply">
			<path id="&lt;Path&gt;" class="s3" d="m56.7 42.2c-1.1 21.1 35 50.2 35 50.2-0.2-65.2-33.8-71.3-35-50.2z"/>
			<path id="&lt;Path&gt;" class="s3" d="m129.2 44.1c-20.5 5.1-37.5 48.3-37.5 48.3 62.1-19.5 58-53.5 37.5-48.3z"/>
			<path id="&lt;Path&gt;" class="s3" d="m148.8 114.2c-10.9-18.1-57.1-21.8-57.1-21.8 36.7 53.7 68 39.9 57.1 21.8z"/>
			<path id="&lt;Path&gt;" class="s3" d="m78 152c16.4-13.3 13.7-59.6 13.7-59.6-48.2 43.8-30.1 72.9-13.7 59.6z"/>
			<path id="&lt;Path&gt;" class="s3" d="m31.9 105.4c19.1 9.2 59.8-13 59.8-13-60.2-24.9-78.8 3.9-59.8 13z"/>
		</g>
		<g id="&lt;Group&gt;">
			<path id="&lt;Path&gt;" class="s4" d="m87.9 87.9c0 0-36.1-29.1-34.9-50.2 1.1-21.1 34.8-15 34.9 50.2z"/>
			<path id="&lt;Path&gt;" class="s4" d="m87.9 87.9c0 0 17.1-43.2 37.6-48.3 20.5-5.2 24.6 28.8-37.6 48.3z"/>
			<path id="&lt;Path&gt;" class="s4" d="m87.9 87.9c0 0 46.3 3.7 57.2 21.8 10.9 18.1-20.4 31.9-57.2-21.8z"/>
			<path id="&lt;Path&gt;" class="s4" d="m87.9 87.9c0 0 2.8 46.3-13.6 59.6-16.4 13.3-34.5-15.8 13.6-59.6z"/>
			<path id="&lt;Path&gt;" class="s4" d="m87.9 87.9c0 0-40.7 22.2-59.7 13-19.1-9.1-0.5-37.9 59.7-13z"/>
		</g>
		<path id="&lt;Path&gt;" class="s1" d="m110.5 78.8c-1.9-0.2-3.6 0.1-5.2 0.5q0.5-1 0.9-2.2c2.3-6.8-0.5-13.9-6.3-15.9-5.7-1.9-12.3 2.1-14.6 8.9-0.5 1.7-0.8 3.5-0.8 5.2q-0.8-0.8-1.9-1.5c-6-4-13.6-3.1-16.9 2-3.3 5-1.3 12.1 4.5 16.1-4.7 3.5-6.7 9.3-4.4 14 2.6 5.4 10 7.4 16.5 4.2 1.7-0.8 3.1-1.8 4.3-3q0 1.2 0.2 2.4c1.4 7 7.4 11.8 13.3 10.7 6-1.2 9.7-7.8 8.4-14.9-0.4-1.8-1-3.5-1.9-4.9q1.2 0.3 2.4 0.3c7.2 0.5 13.3-4 13.7-10.1 0.4-6-5.1-11.3-12.2-11.8z"/>
		<g id="&lt;Group&gt;">
			<path id="&lt;Path&gt;" class="s5" d="m78.4 71.1c6 3.9 8.2 11.3 4.8 16.4-3.3 5-10.9 5.9-16.9 2-6-4-8.2-11.3-4.8-16.4 3.3-5.1 10.9-6 16.9-2z"/>
			<path id="&lt;Path&gt;" class="s5" d="m102 74.4c-2.3 6.8-8.9 10.8-14.6 8.9-5.8-2-8.6-9.1-6.3-15.9 2.3-6.8 8.9-10.8 14.6-8.9 5.8 2 8.6 9.1 6.3 15.9z"/>
			<path id="&lt;Path&gt;" class="s5" d="m104.8 98.1c-7.2-0.5-12.7-5.8-12.3-11.9 0.4-6.1 6.6-10.6 13.7-10.1 7.2 0.5 12.7 5.8 12.3 11.8-0.4 6.1-6.5 10.6-13.7 10.2z"/>
			<path id="&lt;Path&gt;" class="s5" d="m82.6 106.8c-1.3-7.1 2.4-13.8 8.4-14.9 5.9-1.2 11.9 3.6 13.3 10.7 1.3 7.1-2.4 13.7-8.4 14.9-6 1.1-11.9-3.7-13.3-10.7z"/>
			<path id="&lt;Path&gt;" class="s5" d="m68.5 87.6c6.5-3.1 13.9-1.2 16.6 4.3 2.6 5.4-0.5 12.4-7 15.5-6.5 3.2-13.9 1.3-16.5-4.2-2.7-5.5 0.5-12.5 6.9-15.6z"/>
			<path id="&lt;Path&gt;" class="s6" d="m98.2 88.2c-0.4 5.7-5.2 10-10.9 9.7-5.7-0.4-10-5.2-9.7-10.9 0.3-5.7 5.2-10 10.9-9.7 5.7 0.4 10 5.2 9.7 10.9z"/>
		</g>
		<g id="&lt;Group&gt;" style="opacity: .4;mix-blend-mode: overlay">
			<path id="&lt;Path&gt;" class="s7" d="m105.9 63.7c6.7-10.4 15.3-20.7 24.6-23.1q2.1-0.5 3.8-0.5c-2.3-1.1-5.3-1.4-8.8-0.5-8.7 2.1-16.7 11.1-23.1 20.7 1.4 0.8 2.6 2 3.5 3.4z"/>
			<path id="&lt;Path&gt;" class="s7" d="m90.6 61.9c1.9-1.6 4.2-2.6 6.5-2.7q-0.7-0.4-1.4-0.7c-1.9-0.6-3.9-0.6-5.8 0q0.4 1.7 0.7 3.4z"/>
			<path id="&lt;Path&gt;" class="s7" d="m108.5 112c10 9 18.9 13 25.6 13.7-7-2.1-15.4-7.2-24.7-16.6q-0.3 1.5-0.9 2.9z"/>
			<path id="&lt;Path&gt;" class="s7" d="m92.1 115.8q-0.1 0.8-0.2 1.6 1.4 0.3 2.9 0.2-1.5-0.7-2.7-1.8z"/>
			<path id="&lt;Path&gt;" class="s7" d="m74 109.7c-3.2-0.7-5.9-2.5-7.3-5.5-0.6-1.2-0.9-2.5-1-3.8q-2.3 0.7-4.7 1.3 0.2 0.8 0.6 1.5c1.4 2.9 4.1 4.8 7.3 5.4-19 26.1-12.3 43.1-1.7 42.1-7-4.2-8.8-19.5 6.8-41z"/>
			<path id="&lt;Path&gt;" class="s7" d="m33.3 102c-15.7-7.6-5.9-28.4 31.7-21.6-0.2-2.2 0.3-4.4 1.6-6.2 1.5-2.4 4-3.9 6.8-4.3-8.2-9.6-15.9-21.3-15.4-31.2 0.4-6.6 4-10.6 8.8-10.8-7.1-3.2-13.3 0.9-13.8 9.8-0.6 9.9 7.1 21.5 15.4 31.1-2.9 0.5-5.4 1.9-6.9 4.3-1.3 1.9-1.7 4-1.6 6.2-37.5-6.7-47.4 14.1-31.7 21.6 2.2 1.1 4.7 1.7 7.4 2q-1.2-0.4-2.3-0.9z"/>
		</g>
		<g id="&lt;Group&gt;" style="opacity: .4;mix-blend-mode: overlay">
			<path id="&lt;Path&gt;" class="s7" d="m162.5 78.6c0 0 2.8-0.3 6.2 0.3-1.5-0.7-3-1.1-4.5-1.4q-0.8 0.6-1.7 1.1z"/>
			<path id="&lt;Path&gt;" class="s7" d="m164.2 50.5q0.4 0 0.8 0.1-0.3-0.2-0.5-0.3-0.2-0.1-0.3-0.2 0 0.2 0 0.4z"/>
			<path id="&lt;Path&gt;" class="s7" d="m96.7 167.4q-1 0.7-2.2 1.5c2.5 2.5 5.2 3.9 8 4-2-1.2-4-3-5.8-5.5z"/>
			<path id="&lt;Path&gt;" class="s7" d="m118.3 153c0 0 0.4 1.3 0.8 3.2 2.8 1.8 6 3.2 9.2 3.8-4-1.7-7.7-4.4-10-7z"/>
			<path id="&lt;Path&gt;" class="s7" d="m139.5 17.4c-2.9-1.2-5.8-1.8-8.5-2.1 0.1 0.5 0.2 0.9 0.2 1.4 2.5-0.1 5.3 0 8.3 0.7z"/>
			<path id="&lt;Path&gt;" class="s7" d="m36.8 132.4c0 0-3 2-7 3.1-3.3 8.6-3.1 21 7.9 22.1-7.7-4.7-5.3-18.5-0.9-25.2z"/>
			<path id="&lt;Path&gt;" class="s7" d="m105.5 19.6c0 0 3.6-14.8 15.7-13.9-1.1-0.6-2.3-1.1-3.6-1.3-7.7-1.2-12.1 3.7-14.5 8 1.2 2.5 2 5 2.4 7.2z"/>
			<path id="&lt;Path&gt;" class="s7" d="m50.2 157q-1.2 0.7-2.4 1.2c7.2 8.2 14.2 12.1 20.6 13.4-5.7-2.3-11.9-6.8-18.2-14.6z"/>
			<path id="&lt;Path&gt;" class="s7" d="m15 131.3c-3.1-3.9-2.7-9 0.9-14.3-7.6-6.6-16.5-20.2-3.5-42.7-1.3-1.2-2.3-2.5-2.9-3.9-5.3-13.7 12.7-18.3 22.2-16.6 0 0-13.6-8.9-7.2-20.5 2.3-4.2 6.8-5.7 12.6-4.8 2.5-9.3 11.4-28 43.2-21.2 0.5-1.1 1.2-2.1 2.1-2.9 2.6-2.2 5.2-3.1 7.6-3-3.7-2.1-8-2.2-12.4 1.6-0.9 0.7-1.6 1.7-2.1 2.8-31.8-6.8-40.7 11.9-43.2 21.3-5.8-1-10.3 0.5-12.6 4.7-6.4 11.6 7.2 20.6 7.2 20.6-9.5-1.8-27.5 2.9-22.1 16.6 0.5 1.4 1.5 2.6 2.8 3.8-13 22.5-4.1 36.1 3.5 42.7-3.5 5.3-4 10.4-0.9 14.3 2.6 3.2 5.7 4.5 8.7 4.8-1.3-0.7-2.7-1.8-3.9-3.3z"/>
		</g>
	</g>
</svg>