<svg version="1.2" xmlns="http://www.w3.org/2000/svg" viewBox="0 0 246 108" width="246" height="108">
	<title>Proyecto nuevo</title>
	<style>
		.s0 { fill: #2783c1 } 
		.s1 { fill: #80c0fc } 
		.s2 { opacity: .4;mix-blend-mode: overlay;fill: #ffffff } 
		.s3 { opacity: .3;mix-blend-mode: multiply;fill: #80c0fc } 
	</style>
	<g id="Azul2">
		<g id="&lt;Group&gt;">
			<path id="&lt;Path&gt;" class="s0" d="m-0.4 58.3c67.2 3.8 135.5 4.7 201.9-7.9 1.7-0.3 5.2-1.1 6.8-1.5 0 0 13.6-3.3 13.6-3.3-28.9 8.9-59.4 13-89.5 15.2-44.3 2.9-88.8 2-132.8-2.5z"/>
			<path id="&lt;Path&gt;" class="s0" d="m167.6 56.5c9.2-16.4 19.5-32.4 30.8-47.4-9.1 16.5-19.5 32.4-30.8 47.4z"/>
			<path id="&lt;Path&gt;" class="s0" d="m183 32.8c5.5-1.3 11-1.4 16.6-0.1-5.5 1.4-11.1 1.4-16.6 0.1z"/>
			<path id="&lt;Path&gt;" class="s0" d="m162 26.5c5 6.2 9 13 11.8 20.5-5.1-6.2-9-13-11.8-20.5z"/>
			<path id="&lt;Path&gt;" class="s0" d="m121.3 60.6c29.3 11.2 58.4 23.6 86.8 37.2-29.4-11.2-58.5-23.7-86.8-37.2z"/>
			<path id="&lt;Path&gt;" class="s0" d="m164.7 79.2q15.8-6.5 32.6-9.2-15.8 6.5-32.6 9.2z"/>
			<path id="&lt;Path&gt;" class="s0" d="m140.6 68.9q6.5 13.6 9.3 28.5-6.5-13.7-9.3-28.5z"/>
			<path id="&lt;Path&gt;" class="s0" d="m75.4 61.6c11-15.2 23.2-29.8 36.3-43.3-11.1 15.2-23.3 29.7-36.3 43.3z"/>
			<path id="&lt;Path&gt;" class="s0" d="m92.4 40.8q16.9-4 34.2-4.2-16.8 4.1-34.2 4.2z"/>
			<path id="&lt;Path&gt;" class="s0" d="m65.1 29.8q10.9 9.4 18.9 21.5-10.9-9.4-18.9-21.5z"/>
		</g>
		<path id="&lt;Path&gt;" class="s1" d="m240.3 54.4c-5.7 4.7-14.2 3.8-18.8-1.9-4.7-5.8-3.8-14.2 1.9-18.8 5.7-4.7 14.2-3.8 18.8 1.9 4.7 5.7 3.8 14.1-1.9 18.8z"/>
		<path id="&lt;Path&gt;" class="s2" d="m240.2 42.4c-2.1 1.7-5.2 1.4-6.9-0.7-1.7-2.1-1.4-5.2 0.7-6.9 2.1-1.7 5.2-1.4 6.9 0.7 1.7 2.1 1.4 5.2-0.7 6.9z"/>
		<path id="&lt;Path&gt;" class="s3" d="m240.3 54.4q1.5-1.3 2.6-2.8c-4.3 0.4-8.7-1.3-11.6-4.9-3.8-4.7-3.9-11.2-0.7-16-2.5 0.2-5 1.2-7.2 3-5.7 4.6-6.6 13-1.9 18.8 4.6 5.7 13.1 6.6 18.8 1.9z"/>
		<g id="&lt;Group&gt;">
			<path id="&lt;Path&gt;" class="s1" d="m169.6 28.6c-3.9 3.2-9.7 2.6-12.9-1.3-3.2-3.9-2.6-9.7 1.3-12.9 3.9-3.2 9.7-2.7 12.9 1.3 3.2 3.9 2.6 9.7-1.3 12.9z"/>
			<path id="&lt;Path&gt;" class="s2" d="m165 15.4c1.3-1.4 3.5-1.4 4.8 0 1.3 1.3 1.3 3.4 0 4.8-1.3 1.3-3.5 1.3-4.8 0-1.3-1.4-1.3-3.5 0-4.8z"/>
			<path id="&lt;Path&gt;" class="s3" d="m169.6 28.6q1.1-0.8 1.8-1.9c-3 0.2-6-0.9-8-3.4-2.6-3.2-2.7-7.7-0.4-11-1.8 0.2-3.5 0.9-5 2.1-3.9 3.2-4.5 9-1.3 12.9 3.2 3.9 9 4.5 12.9 1.3z"/>
		</g>
		<g id="&lt;Group&gt;">
			<path id="&lt;Path&gt;" class="s1" d="m213.9 104.9c-4 3.2-9.8 2.6-13-1.3-3.2-4-2.6-9.8 1.4-13 3.9-3.2 9.7-2.6 12.9 1.4 3.2 3.9 2.6 9.7-1.3 12.9z"/>
			<path id="&lt;Path&gt;" class="s2" d="m209.3 91.6c1.3-1.3 3.4-1.3 4.8 0 1.3 1.4 1.3 3.5 0 4.8-1.4 1.4-3.5 1.4-4.8 0-1.3-1.3-1.3-3.4 0-4.8z"/>
			<path id="&lt;Path&gt;" class="s3" d="m213.9 104.9q1-0.9 1.7-1.9c-2.9 0.2-5.9-0.9-7.9-3.4-2.6-3.2-2.7-7.7-0.5-11-1.7 0.2-3.5 0.8-4.9 2-4 3.2-4.6 9-1.4 13 3.2 3.9 9 4.5 13 1.3z"/>
		</g>
		<g id="&lt;Group&gt;">
			<path id="&lt;Path&gt;" class="s1" d="m67.7 32.7c-3.9 3.2-9.7 2.6-12.9-1.4-3.2-3.9-2.6-9.7 1.3-12.9 4-3.2 9.8-2.6 13 1.3 3.2 4 2.6 9.8-1.4 13z"/>
			<path id="&lt;Path&gt;" class="s2" d="m63.2 19.4c1.3-1.3 3.4-1.3 4.7 0 1.4 1.3 1.4 3.5 0 4.8-1.3 1.3-3.4 1.3-4.7 0-1.4-1.3-1.4-3.5 0-4.8z"/>
			<path id="&lt;Path&gt;" class="s3" d="m67.7 32.7q1.1-0.9 1.8-2c-2.9 0.3-5.9-0.9-7.9-3.3-2.7-3.3-2.7-7.7-0.5-11-1.7 0.1-3.5 0.8-5 2-3.9 3.2-4.5 9-1.3 12.9 3.2 4 9 4.6 12.9 1.4z"/>
		</g>
		<g id="&lt;Group&gt;">
			<path id="&lt;Path&gt;" class="s1" d="m118.1 21.2c-3.2 2.6-8 2.1-10.7-1.1-2.6-3.3-2.1-8.1 1.1-10.8 3.3-2.6 8.1-2.1 10.7 1.1 2.7 3.3 2.2 8.1-1.1 10.8z"/>
			<path id="&lt;Path&gt;" class="s2" d="m114.4 10.2c1-1.1 2.8-1.1 3.9 0 1.1 1.1 1.1 2.8 0 3.9-1.1 1.1-2.9 1.1-3.9 0-1.1-1.1-1.1-2.8 0-3.9z"/>
			<path id="&lt;Path&gt;" class="s3" d="m118.1 21.2q0.9-0.8 1.5-1.7c-2.4 0.3-4.9-0.7-6.6-2.7-2.1-2.7-2.2-6.4-0.3-9.1-1.5 0.1-2.9 0.6-4.2 1.6-3.2 2.7-3.7 7.5-1.1 10.8 2.7 3.2 7.5 3.7 10.7 1.1z"/>
		</g>
		<g id="&lt;Group&gt;">
			<path id="&lt;Path&gt;" class="s1" d="m205.8 13.6c-3.3 2.6-8.1 2.1-10.8-1.1-2.6-3.3-2.1-8.1 1.1-10.7 3.3-2.7 8.1-2.2 10.8 1.1 2.6 3.2 2.1 8-1.1 10.7z"/>
			<path id="&lt;Path&gt;" class="s2" d="m202 2.6c1.1-1.1 2.8-1.1 3.9 0 1.1 1.1 1.1 2.9 0 4-1.1 1-2.8 1-3.9 0-1.1-1.1-1.1-2.9 0-4z"/>
			<path id="&lt;Path&gt;" class="s3" d="m205.8 13.6q0.8-0.8 1.4-1.6c-2.4 0.2-4.9-0.8-6.6-2.8-2.1-2.7-2.2-6.4-0.3-9.1-1.5 0.1-2.9 0.7-4.2 1.7-3.2 2.6-3.7 7.4-1.1 10.7 2.7 3.2 7.5 3.7 10.8 1.1z"/>
		</g>
		<g id="&lt;Group&gt;">
			<path id="&lt;Path&gt;" class="s1" d="m156.4 105.9c-3.3 2.7-8.1 2.2-10.7-1.1-2.7-3.2-2.2-8 1.1-10.7 3.3-2.6 8-2.1 10.7 1.1 2.7 3.3 2.2 8.1-1.1 10.7z"/>
			<path id="&lt;Path&gt;" class="s2" d="m152.6 95c1.1-1.1 2.9-1.1 4 0 1.1 1.1 1.1 2.8 0 3.9-1.1 1.1-2.9 1.1-4 0-1.1-1.1-1.1-2.8 0-3.9z"/>
			<path id="&lt;Path&gt;" class="s3" d="m156.4 105.9q0.9-0.7 1.5-1.6c-2.5 0.3-4.9-0.7-6.6-2.7-2.2-2.7-2.2-6.4-0.4-9.1-1.4 0.1-2.9 0.6-4.1 1.6-3.3 2.7-3.8 7.5-1.1 10.7 2.6 3.3 7.4 3.8 10.7 1.1z"/>
		</g>
		<g id="&lt;Group&gt;">
			<path id="&lt;Path&gt;" class="s1" d="m201.4 74.8c-2.3 1.8-5.7 1.5-7.6-0.8-1.9-2.3-1.6-5.7 0.8-7.6 2.3-1.9 5.7-1.6 7.6 0.8 1.8 2.3 1.5 5.7-0.8 7.6z"/>
			<path id="&lt;Path&gt;" class="s2" d="m198.7 67c0.8-0.8 2-0.8 2.8 0 0.8 0.8 0.8 2 0 2.8-0.8 0.8-2 0.8-2.8 0-0.8-0.8-0.8-2 0-2.8z"/>
			<path id="&lt;Path&gt;" class="s3" d="m201.4 74.8q0.6-0.5 1-1.2c-1.7 0.2-3.5-0.5-4.6-2-1.6-1.9-1.6-4.5-0.3-6.4-1.1 0.1-2.1 0.5-2.9 1.2-2.4 1.9-2.7 5.3-0.8 7.6 1.9 2.3 5.3 2.6 7.6 0.8z"/>
		</g>
		<g id="&lt;Group&gt;">
			<path id="&lt;Path&gt;" class="s1" d="m205.5 37.3c-2.3 1.9-5.7 1.6-7.6-0.7-1.9-2.4-1.5-5.8 0.8-7.6 2.3-1.9 5.7-1.6 7.6 0.7 1.9 2.4 1.5 5.8-0.8 7.6z"/>
			<path id="&lt;Path&gt;" class="s2" d="m202.8 29.6c0.8-0.8 2.1-0.8 2.8 0 0.8 0.7 0.8 2 0 2.8-0.7 0.7-2 0.7-2.8 0-0.8-0.8-0.8-2.1 0-2.8z"/>
			<path id="&lt;Path&gt;" class="s3" d="m205.5 37.3q0.6-0.5 1.1-1.1c-1.8 0.2-3.5-0.5-4.7-2-1.6-1.9-1.6-4.5-0.3-6.4-1 0.1-2 0.5-2.9 1.2-2.3 1.8-2.7 5.2-0.8 7.6 1.9 2.3 5.3 2.6 7.6 0.7z"/>
		</g>
		<g id="&lt;Group&gt;">
			<path id="&lt;Path&gt;" class="s1" d="m131.5 40.6c-2.3 1.9-5.7 1.5-7.6-0.8-1.9-2.3-1.6-5.7 0.8-7.6 2.3-1.9 5.7-1.5 7.6 0.8 1.8 2.3 1.5 5.7-0.8 7.6z"/>
			<path id="&lt;Path&gt;" class="s2" d="m128.8 32.8c0.8-0.8 2-0.8 2.8 0 0.8 0.8 0.8 2 0 2.8-0.8 0.8-2 0.8-2.8 0-0.8-0.8-0.8-2 0-2.8z"/>
			<path id="&lt;Path&gt;" class="s3" d="m131.5 40.6q0.6-0.5 1-1.2c-1.7 0.2-3.5-0.5-4.7-1.9-1.5-1.9-1.5-4.6-0.2-6.5-1.1 0.1-2.1 0.5-2.9 1.2-2.4 1.9-2.7 5.3-0.8 7.6 1.9 2.3 5.3 2.7 7.6 0.8z"/>
		</g>
	</g>
</svg>