<svg version="1.2" xmlns="http://www.w3.org/2000/svg" viewBox="0 0 231 96" width="231" height="96">
	<title>Proyecto nuevo</title>
	<style>
		.s0 { fill: #76aba6 } 
		.s1 { fill: #abddd6 } 
		.s2 { fill: #f8fffa } 
		.s3 { opacity: .4;mix-blend-mode: multiply;fill: #76aba6 } 
	</style>
	<g id="&lt;Group&gt;">
		<path id="&lt;Path&gt;" class="s0" d="m39.2 17.9c0 0 72.6-28.4 106.6-12.5 0 0-10.2 4.4-12.4 7.4 0 0 42.9 7.6 59.2 29.3 16.2 21.6 38.4 29.8 38.4 29.8 0 0-50.1 14.6-67.6 9 0 0 1.8 8.7 9.8 12.7 0 0-49.1 21.8-134-75.7z"/>
		<path id="&lt;Path&gt;" class="s1" d="m7.5 5.8c0 0 7 2.9 7 2.9 13.6 5.3 28.6 11 42.3 16 12.4 4.4 24.9 8.9 37.3 13.2 4 9.2 8.5 18.3 13.5 27.1 5.1 9.2 11.1 18.5 20.1 24.3l0.2-0.3c-12.7-15.8-23.7-33-33.2-50.9 11.8 4.1 23.6 8 35.5 11.8 3.2 6.9 8.3 12.7 14.1 17.6 5.8 5.2 12.1 9.9 19 13.6l0.2-0.3c-6.4-4.4-12.2-9.5-17.6-15.1-3.9-4.2-7.5-8.6-11.7-12.7q-1.3-1.3-2.6-2.6c13.2 4.1 26.5 8.1 39.9 11.7 19.5 4.7 39.3 9.9 59.5 10v-0.3c-5-0.4-10-1-14.9-2-14.8-2.7-29.4-6.6-43.8-10.6q-4.6-1.3-9.1-2.6c5.2-1.2 10.5-2.4 15.8-3.4 6.5-1 12.7-2.1 18.9-4.5 0 0 0-0.3 0-0.3-6.7-0.9-13.2 0.4-19.5 2.5-5.5 1.5-11 3.3-16.4 5.4q-40.8-11.5-81-25c17-7.4 34.5-13.4 52.4-18.3 0 0-0.1-0.3-0.1-0.3-9.4 1.7-18.8 3.8-28 6.5-8.9 2.4-18.3 5.4-25.2 11.8q-11.4-3.8-22.8-7.7c-18.6-6.6-38.4-13-56.5-20.8l-0.2 0.2c2.3 1.3 4.6 2.2 6.9 3.1z"/>
		<g id="&lt;Group&gt;" style="opacity: .3;mix-blend-mode: overlay">
			<path id="&lt;Path&gt;" class="s2" d="m136.8 10c-3 1.6-6.9 3.8-8.1 5.5 0 0 42.9 7.5 59.2 29.2q2.5 3.4 5.2 6.3 0 0 0.1 0c0 0 0 0.1 0 0.2 12.3 13.5 26.1 20.4 31.1 22.6 3.1-0.8 5.3-1.5 6.2-1.7q0.2 0 0.5 0v-0.2-0.1q-0.3 0-0.5-0.1c-3-1.1-18.7-8-32.6-23.2 0 0 0-0.1 0-0.1q0 0-0.1 0-2.7-3-5.2-6.3c-16.3-21.7-59.2-29.3-59.2-29.3 0.6-0.8 1.9-1.8 3.4-2.8z"/>
			<path id="&lt;Path&gt;" class="s2" d="m164.8 84.6c-2.3-0.1-4.4-0.5-6.1-1 0 0 1.5 7.3 8 11.6 4.3-0.6 6.5-1.6 6.5-1.6-4.6-2.3-7.1-6.1-8.4-9z"/>
			<path id="&lt;Path&gt;" class="s2" d="m14.5 8.7c8.1 3.1 16.6 6.4 25.1 9.6q0.1 0.1 0.2 0.3c17.2-6.1 72.3-23.7 100.9-10.8 2.7-1.4 5.1-2.4 5.1-2.4-31.4-14.7-95.5 8.3-105.3 12-13.4-4.6-27-9.5-39.7-14.9l-0.2 0.2c2.3 1.3 4.6 2.2 6.9 3.1 0 0 7 2.9 7 2.9z"/>
		</g>
		<path id="&lt;Path&gt;" class="s3" d="m40.5 17.4c-13.4-4.6-27-9.5-39.7-14.9l-0.2 0.2c2.3 1.3 4.6 2.2 6.9 3.1 0 0 7 2.9 7 2.9 8.1 3.1 16.6 6.4 25.1 9.6 35.2 40.4 64.2 60.2 86.1 69.5 0.7 0.5 1.3 1 2 1.5l0.2-0.3q-0.2-0.2-0.3-0.4c23 9.4 37.8 7.2 43.3 5.8-12.2-3.4-42.2-13.6-55.5-36.9-9.2-16.2-18.5-36.7-35.3-51.9-19.1 4.3-35.1 10.1-39.6 11.8z"/>
	</g>
</svg>