<svg version="1.2" xmlns="http://www.w3.org/2000/svg" viewBox="0 0 286 223" width="286" height="223">
	<title>Proyecto nuevo</title>
	<style>
		.s0 { fill: #f8fffa } 
		.s1 { fill: #afefc0 } 
	</style>
	<g id="&lt;Group&gt;">
		<g id="&lt;Group&gt;">
			<path id="&lt;Path&gt;" class="s0" d="m-0.3 224.1c37.3-50.9 92.3-96.2 147.9-125.8 0 0 11.5-6.1 11.5-6.1l0.1 0.2-11.3 6.4c-56.3 32.2-107.6 75.1-148.2 125.3z"/>
			<path id="&lt;Path&gt;" class="s0" d="m53.7 165.8c14.1-10.6 34.1-19.9 52.1-18.4q1.9 0.3 3.7 0.7v0.1c-19.9-1.3-38.9 9-55.8 17.6z"/>
			<path id="&lt;Path&gt;" class="s0" d="m116.8 90.9c-3.8 11.2-7.8 22.2-11 33.6-0.2-5.5 1.7-12 3.4-17.5 2-5.4 4.3-11.8 7.6-16.1z"/>
			<path id="&lt;Path&gt;" class="s0" d="m37.3 181.1c2-10.2 6.3-19.6 9.9-29.3h0.2c-0.5 5.2-2.2 10.2-3.9 15.1-1.8 4.8-3.8 9.6-6 14.3z"/>
			<path id="&lt;Path&gt;" class="s0" d="m9.4 211.5c8.7-5.5 18.3-9.2 28.3-11.4 3.3-0.6 6.8-1.2 10.2-0.7v0.2c-6.7 0.6-13.1 3-19.5 5.1-6.3 1.9-13 5-19 6.8z"/>
			<path id="&lt;Path&gt;" class="s1" d="m144 101.2c0 0 17.8-34.9 44.5-44.7 26.7-9.9 92.6-25.9 96.6-28.8 0 0-44.9 85-141.1 73.5z"/>
			<path id="&lt;Compound Path&gt;" fill-rule="evenodd" class="s0" d="m143.7 101.2c1-1.2 3.2-1.9 4.6-2.7 0 0 4.4-2.1 4.4-2.1 5.6-2.8 21-10.4 26.8-13.3 20.9-10.4 50.5-25.2 71-35.9 11.6-6.3 23.7-12.1 34.5-19.6q-2.5 1.9-5.1 4 2.7-1.8 5.4-3.7 0 0 0 0c-33.6 26.4-96.6 72.2-140.1 73.2 41.4-1.1 100.1-42.6 134.7-69.5-9.4 5.9-19.4 10.8-29.1 16.1-27.1 14.3-61.2 31.4-88.7 45.1-2.9 1.4-10.7 5.2-13.4 6.6l-2.2 1.1c-0.4 0.2-0.9 0.4-1.1 0.5-0.2 0.1-0.5 0-0.9 0.1l-0.6 0.1q-0.1 0-0.2 0zm141.3-73.6c0 0 0.3 0.3 0.3 0.3q0 0 0 0c0 0-0.3-0.4-0.3-0.4q0 0 0 0.1 0 0 0 0zm-141.1 73.6q0.7 0 1.3-0.1-0.6 0.1-1.3 0.1z"/>
			<path id="&lt;Path&gt;" class="s1" d="m110.8 104.2c0 0 0.4-34.9 14.5-53.6 14.2-18.7 49.6-48.4 50.9-50.6 0 0-0.2 82.6-65.4 104.2z"/>
			<path id="&lt;Compound Path&gt;" fill-rule="evenodd" class="s0" d="m110.7 104.6c-0.6-0.7-0.2-1.4 0-2.4 0.5-1.9 1-3.9 1.6-5.7 10.4-32.2 30.8-60.3 53.1-85.4 0 0 10.6-11.3 10.6-11.3l0.4 0.3c-11.5 17-22.8 34.1-34 51.3-5.6 8.6-11.2 17.2-16.6 25.9-4.7 8.1-10.3 15.8-14 24.3q0.1 0 0.1-0.1-0.5 1-0.9 2.1 0 0 0 0-0.1 0.5-0.3 1zm0.7-0.9l0.1-0.4 0.2-0.9q0.1-0.4 0.1-0.8-0.4 1-0.8 2c0.2 0 0.4 0.1 0.4 0.1zm14.3-26.4c5.4-8.7 10.9-17.4 16.5-26q15.9-24.7 32.2-49.1c-13.4 14.2-26.6 29.8-37.2 46.1-10.7 16.4-20.4 34-25.3 53.2 3.7-8.5 9.1-16.2 13.8-24.2zm48.7-75.1q1-1 2-2l-0.4-0.3q-0.8 1.1-1.6 2.3zm-63 101.5q0 0 0 0z"/>
			<path id="&lt;Path&gt;" class="s1" d="m45.1 159.9c0 0-14.8-27.4-0.6-62.1 13.5-33.2 36.8-68.1 41.6-81.2q0.3-0.9 0.5-1.6c3.1-11.5 12.6 113.3-41.5 144.9z"/>
			<path id="&lt;Compound Path&gt;" fill-rule="evenodd" class="s0" d="m44.9 160.2c-0.2-0.8 0.1-1.9 0.3-2.7 0 0 0.6-2.3 0.6-2.3 0.7-2.8 2.8-10.8 3.6-13.7 3-11.5 11.5-42.7 14.7-54.6 7-24.1 13.3-48.5 22.3-71.9q-0.2 1-0.3 2 0.4-1 0.7-1.9l-0.4-0.1q0.3-0.9 0.7-1.9c0 0-0.3 1.9-0.3 1.9-6.3 49.1-19.5 97.7-40.6 142.6q0-0.1 0-0.1-0.4 0.9-0.9 1.8 0.1 0 0.1 0-0.2 0.5-0.5 0.9zm1-1.4c0 0 0.3-1.1 0.3-1.1q0-0.1 0-0.1-0.4 0.8-0.8 1.7c0.2-0.3 0.4-0.4 0.5-0.5zm34.4-106.5c2.3-11.7 4.4-23.5 5.8-35.3-8.5 22.9-14.6 46.6-21.3 70.1-4.5 16.8-12.7 47.2-16.9 63.8-0.3 1.2-1.3 5.1-1.7 6.6 15.7-33.4 26.7-69.1 34.1-105.2zm6.1-37.3q0 0 0 0 0 0 0 0z"/>
			<path id="&lt;Path&gt;" class="s1" d="m98.6 148.5c0 0 26-30.8 77.9-23.6 51.9 7.2 70 2.3 70 2.3 0 0-49.5 60.4-147.9 21.3z"/>
			<path id="&lt;Compound Path&gt;" fill-rule="evenodd" class="s0" d="m98.2 148.5c0.6-0.5 1.8-0.6 2.7-0.6 1.4-0.1 5.5-0.4 7-0.6 5.8-0.4 21.9-1.8 27.9-2.4 24.9-2.3 49.7-5.1 74.4-9.1 12.2-2.2 24.6-4.3 36.2-8.9l0.2 0.5q0 0 0 0c0 0-0.2-0.5-0.2-0.5q-2.2 1.1-4.4 2.1 2.3-0.8 4.6-1.6c-35.7 16.9-75.6 24.3-115 23.8-3.2 0.1-10.9-0.5-14.2-0.7-4.7-0.2-10.9-1.1-16.2-1.7h0.1q-0.6 0-1.1-0.1-1.1-0.1-2-0.2zm1.6 0.4l1.1-0.1h0.3q-0.5 0-1-0.1-0.5-0.1-1-0.1c0.3 0.1 0.5 0.3 0.6 0.3zm17.6 1.6c3.4 0.1 11 0.7 14.2 0.6 37.7 0.3 76-6.6 110.4-22.1-22.2 7.3-45.8 9.5-68.8 12.7-17.9 2.2-37.9 4.2-55.9 5.8-3 0.2-11.1 0.9-14 1.2l-2 0.1c5.1 0.6 11.3 1.5 16.1 1.7zm129.2-23.1q0 0 0 0 0 0 0 0 0 0 0 0z"/>
			<path id="&lt;Path&gt;" class="s1" d="m35.2 201.4c0 0 30.5-31 61.5-25.7 31.1 5.3 60.1 7.6 63.7 6.8 0 0-77.2 53.8-125.3 18.9z"/>
			<path id="&lt;Compound Path&gt;" fill-rule="evenodd" class="s0" d="m34.7 201.4c0.2-0.5 0.9-0.6 1.3-0.7l0.9-0.3 1.9-0.5c2.4-0.6 9.1-2.4 11.6-3 10.3-2.6 20.5-5.1 31.1-6.6 26.2-2.9 52.9-3.1 78.8-8q-5 1.1-9.9 2.2 5-0.8 10.1-1.7 0 0 0 0c-40.6 8.8-81.7 17.6-123.4 18.6q0 0 0.1 0-0.8 0-1.5 0 0 0 0 0-0.5 0-1 0zm125.6-19.1c0 0 0.2 0.4 0.2 0.5q0 0 0 0c0 0-0.1-0.5-0.1-0.5q-0.1 0-0.1 0 0 0 0 0zm-124.6 19.4c0 0.1-0.1 0.1 0.1 0.1 0 0 0.4-0.2 0.4-0.2q0.5-0.1 0.9-0.2-0.7 0-1.4 0c0 0.1 0.1 0.2 0 0.3zm45.9-10.6c-10.5 1.5-20.8 4.1-31 6.7-3.6 0.9-9.5 2.5-13.4 3.6 38.2-1.1 75.9-8.7 113.2-16.9-22.8 3.5-46 4-68.8 6.6z"/>
		</g>
		<g id="&lt;Group&gt;" style="opacity: .7;mix-blend-mode: overlay">
			<path id="&lt;Path&gt;" class="s0" d="m110.7 102.2c-0.1 0.6-0.3 1.1-0.3 1.5q-0.6 1.7-1.2 3.3c-1.6 5.2-3.4 11.3-3.4 16.6-21.3 14.4-41.8 31-60.5 48.9q-0.7 1.9-1.5 3.9 6.5-6.3 13.3-12.3c3.3-1.7 6.6-3.4 10-5q2.7-2.3 5.3-4.5c-4.2 2-8.3 4.2-12.1 6.7 15.4-13.5 31.5-26 48.3-37.6q0.1-1.1 0.3-2.2-1.4 0.9-2.8 1.8c1.9-6.6 4.1-13.2 6.3-19.7 0.4-0.1 0.7-0.3 1.1-0.4 0.7-10.3 3.4-34.2 14.3-48.5 11.5-15.2 36.8-37.5 46.8-46.7q0.6-0.7 1.2-1.3c0.3-3.2 0.4-5.4 0.4-6.3q0.1-0.1 0.2-0.3c0 0-0.4-0.3-0.4-0.3 0 0-1.8 1.9-3.9 4.2-9.9 9.1-35.3 31.5-46.8 46.6-11.8 15.6-14 42.3-14.4 50.9q-0.1 0.3-0.2 0.7z"/>
			<path id="&lt;Path&gt;" class="s0" d="m246.6 127.4q0 0 0 0 0 0 0 0c0 0-0.2-0.5-0.2-0.5q-0.8 0.3-1.6 0.6c-5.5 1-25.2 3.4-68.3-2.6-45.7-6.3-71.3 16.8-76.8 22.4-7 0.3-14.1 2-21 4.6q-2.5 2.1-5.1 4.2c8.1-3.6 16.5-6.4 25.1-7.5 1.6 0.6 3 1.1 4.6 1.7 7.2-7 32.5-27.3 75.7-21.3 33.5 4.6 52.9 4.2 62.5 3.3 2.4-2.2 4-3.9 4.6-4.7q0.3-0.1 0.5-0.2z"/>
			<path id="&lt;Path&gt;" class="s0" d="m160.5 182.8q0 0 0 0c0 0-0.1-0.5-0.1-0.5q-0.1 0-0.1 0c-0.7 0.1-1.4 0.2-2.1 0.4-8.1 0-34-2.3-61.5-7-27.9-4.8-55.3 19.8-60.6 24.8q-7.1 1.7-13.9 4.5-1.3 1.4-2.6 2.8c3-1.1 5.9-2.2 8.8-3.1 2.6-0.8 5.2-1.7 7.8-2.5q1.4 1 2.9 1.8c6.5-6 33.1-28.9 60.1-24.3 22.3 3.8 43.5 6.1 55.1 6.8 2.8-1.7 4.7-3 5.6-3.6q0.3-0.1 0.6-0.1z"/>
			<path id="&lt;Path&gt;" class="s0" d="m110.8 120.3q-0.4 1.2-0.8 2.4 16.6-11.4 33.9-21.5 0.1 0 0.1 0v-0.1q0 0.1 0 0.1 0 0 0 0h-0.1q0.1 0 0.1 0 0 0 0 0 2.3 0.2 4.5 0.4c5.3-9.1 21-33.1 42.5-41.1 22.4-8.3 72.4-20.9 90.3-26.4 1.8-2.8 3-4.9 3.5-5.8q0.3-0.2 0.5-0.4 0 0 0 0c0 0-0.3-0.4-0.3-0.4q0 0 0 0.1-0.7 0.4-1.3 0.8c-10.7 4.2-70.1 18.8-95.2 28.1-23.6 8.7-40.3 37-43.8 43.4-11.4 6.1-22.8 13-33.9 20.4z"/>
			<path id="&lt;Path&gt;" class="s0" d="m10.7 211.1c2.3-0.8 4.6-1.6 7-2.5q1-1.3 2.1-2.6c-2.9 1.3-5.7 2.7-8.4 4.3 9.5-10.9 19.5-21.4 29.9-31.5q0.5-1.7 1.1-3.4c-1.4 1.3-2.7 2.6-4 3.9 1.8-4.1 3.5-8.2 5.1-12.4 0.8-2.3 1.6-4.7 2.3-7.1-3.5-8.8-9.8-31.2 1.1-57.9 12.1-29.6 31.9-60.5 39.4-76.1q1-2.9 2.1-5.7c-0.4-4-1-6.2-1.5-5.8 0.1-0.5 0.2-1.2 0.2-1.2q-0.4 1-0.7 1.9 0 0 0 0-0.1 0-0.1 0.1-1.2 3.3-2.4 6.6c-7.6 15.7-27.4 46.5-39.4 76.1-12.5 30.6-2.5 55.4 0 60.9-2.7 7-5.4 14-6.9 21.4-10 10.1-19.4 20.5-28.1 31.3q0 0-0.1 0.1 0 0 0.1-0.1c-3.4 4.2-6.7 8.4-9.8 12.7 3.6-4.4 7.3-8.7 11-13z"/>
		</g>
		<g id="&lt;Group&gt;" style="opacity: .5;mix-blend-mode: multiply">
			<path id="&lt;Path&gt;" class="s1" d="m232.8 81.8c32.7-20.3 49.6-49.2 52-53.5q0.3-0.2 0.5-0.4 0 0 0 0c0 0-0.3-0.4-0.3-0.4q0 0 0 0.1-0.7 0.4-1.3 0.8c-4.7 1.9-18.6 5.7-34.9 10.1-1.9 14.7-7.8 29.6-16 43.3z"/>
			<path id="&lt;Path&gt;" class="s1" d="m36.2 202.2c45.7 31.7 116.8-14.7 123.7-19.3q0.3-0.1 0.6-0.1 0 0 0 0c0 0-0.1-0.5-0.1-0.5q-0.1 0-0.1 0c-0.7 0.1-1.4 0.2-2.1 0.4-7.1 0-28-1.8-51.6-5.4-8.5 4.8-18.3 9.5-30.9 13.9-11.5 4-24.2 6-36.8 6.8-1.2 1-2.2 1.9-2.8 2.5-8.7 2.1-17 5.3-24.7 9.8q5.3-6.1 10.8-12-0.8 0-1.6-0.1c-3.8 4.4-7.5 8.7-11.1 13.2q0 0-0.1 0.1 0 0 0.1-0.1c-3.4 4.2-6.7 8.4-9.8 12.7 3.6-4.4 7.3-8.7 11-13 5.7-1.8 11.9-4.6 17.7-6.4 2.6-0.8 5.2-1.7 7.8-2.5z"/>
			<path id="&lt;Path&gt;" class="s1" d="m246.4 126.9q-0.8 0.3-1.6 0.6c-4.7 0.9-19.9 2.7-51.4-0.5-8.5 6.7-17.1 11.7-24.8 14.5-14.1 5.1-24.3 11.1-34 17.6 70.1 12.9 107.5-26.9 111.5-31.5q0.3-0.1 0.5-0.2 0 0 0 0 0 0 0 0c0 0-0.2-0.5-0.2-0.5z"/>
		</g>
	</g>
</svg>