<svg version="1.2" xmlns="http://www.w3.org/2000/svg" viewBox="0 0 282 165" width="282" height="165">
	<title>Proyecto nuevo</title>
	<style>
		.s0 { fill: #d87e56 } 
		.s1 { fill: #8fc4f9 } 
		.s2 { fill: #3a2c1a } 
		.s3 { fill: #ffffff } 
		.s4 { fill: #ffc661 } 
		.s5 { opacity: .3;mix-blend-mode: multiply;fill: #80b8fc } 
		.s6 { fill: #b3d9ff } 
		.s7 { opacity: .5;mix-blend-mode: multiply;fill: #b3d9ff } 
		.s8 { opacity: .3;mix-blend-mode: multiply;fill: #d87e56 } 
	</style>
	<g id="Pollo">
		<g id="&lt;Group&gt;">
			<path id="&lt;Path&gt;" class="s0" d="m129.3 152.9l16.5-28.9-3.3-1.7-13.3 30.6q0-0.1 0-0.1c-5.8 0.7-11.9 1.4-17 4.4 0 0 0.1 0.2 0.1 0.2 1.3-0.5 2.7-0.7 4-0.9 1.8-0.4 5.7-0.9 8.9-1.3-2.5 1-4.6 2.8-5.6 5.4l0.1 0.1c2.2-1.4 6.6-4.4 8.8-6q0.1 0 0.1 0l8.7 7.7 0.1-0.1c-0.5-0.9-1.1-1.6-1.7-2.5-2-2.4-4.1-4.8-6.4-6.9z"/>
			<path id="&lt;Path&gt;" class="s0" d="m170.2 164.3c-2.5-3.4-5.6-6.3-8.9-8.9q-0.1 0.1-0.3 0.2l12-30.8-3.5-1.1-8.8 32c-4.6 1.9-9 4.2-12.7 7.4 0 0 0.1 0.2 0.1 0.2 3.4-1.6 7.7-3.3 11-4.9-1 1.9-1.3 4.1-0.4 6.3 0 0 0.2 0.1 0.2 0.1 0.6-1.7 1.5-4.8 2.2-7.2l9 6.9c0 0 0.1-0.2 0.1-0.2z"/>
		</g>
		<path id="&lt;Path&gt;" class="s1" d="m110.2 17c0 0-6.2-13-22.9-15.7-16.8-2.7-27 1.7-35.5 14-8.4 12.2-1.3 29.5 8.8 35.6 10.2 6 14.8 6.1 18 12.4 3.2 6.3 15.1 51.4 48.9 64.1 42.4 16 71.2-10.4 80.8-19.7 9.5-9.3 59.5-64.3 67.9-77.1 8.3-12.7 6.8-16.1-1.5-17.8-8.4-1.7-9.8 3.3-14.1-3.3-3-4.5-16.4-18-25 13.5-1.2 4.5-12.1 17.6-25.4 17.7-13.4 0.1-46.6-3-62.6-1-21.1 2.6-28.7-10-37.4-22.7z"/>
		<path id="&lt;Path&gt;" class="s2" d="m67.7 36c-2.2-0.6-3.4-2.9-2.7-5 0.7-2.2 2.9-3.3 5-2.7 2.2 0.7 3.4 2.9 2.7 5.1-0.7 2.1-2.9 3.3-5 2.6z"/>
		<path id="&lt;Path&gt;" class="s3" d="m68.3 32.3c-0.7 0.4-1.6 0.1-1.9-0.6-0.4-0.7-0.2-1.6 0.6-2 0.7-0.4 1.6-0.1 2 0.6 0.3 0.7 0.1 1.6-0.7 2z"/>
		<path id="&lt;Compound Path&gt;" fill-rule="evenodd" class="s4" d="m15.1 68.4c-11.2-3.5-17.5-15.4-14.1-26.7 3.5-11.3 15.4-17.6 26.7-14.1 11.3 3.5 17.6 15.4 14.1 26.7-3.5 11.3-15.4 17.6-26.7 14.1zm22.8-15.3c2.5-8.3-2.1-17.1-10.4-19.6-8.3-2.6-17 2-19.6 10.3-2.5 8.3 2.1 17.1 10.4 19.6 8.3 2.6 17-2.1 19.6-10.3z"/>
		<g id="&lt;Group&gt;" style="opacity: .3;mix-blend-mode: overlay">
			<path id="&lt;Path&gt;" class="s3" d="m278.8 14.1q-1.6-0.8-4.1-1.3c-4-0.8-6.4-0.1-8.3 0.1 3.2 3.1 5.3-0.3 12.4 1.2z"/>
			<path id="&lt;Path&gt;" class="s3" d="m151.8 41c16-2 49.2 1.1 62.5 1 13.4-0.1 24.3-13.2 25.5-17.7 4.4-16.2 10.1-20.5 15-20.2-5.5-3.1-13.4-2.2-19.2 18.9-1.2 4.5-12.1 17.6-25.4 17.7-13.4 0.1-46.6-3-62.6-1-4.8 0.6-8.9 0.4-12.4-0.4 4.4 1.8 9.8 2.5 16.6 1.7z"/>
			<path id="&lt;Path&gt;" class="s3" d="m131.6 128.7c-33.8-12.7-45.7-57.8-48.8-64.1-3.2-6.3-7.8-6.4-18-12.5-10.1-6-17.2-23.3-8.8-35.6 8.5-12.2 18.7-16.6 35.4-13.9q1.3 0.2 2.5 0.5c-2-0.8-4.2-1.4-6.6-1.8-16.8-2.7-27 1.7-35.5 14-8.4 12.2-1.3 29.5 8.8 35.6 10.2 6 14.8 6.1 18 12.4 3.2 6.3 15.1 51.4 48.9 64.1q3.6 1.4 7 2.3-1.4-0.4-2.9-1z"/>
		</g>
		<path id="&lt;Path&gt;" class="s5" d="m274.7 12.8c-8.4-1.7-9.8 3.3-14.1-3.3q-0.1-0.1-0.2-0.3c0.8 6.9 0.9 15.2-1.7 22.3-5.7 15.3-34.6 60.4-67.3 64.2-28.6 3.2-71.7-13.4-99.8-2.6 7.6 13.6 19 28 35.9 34.3 42.4 16 71.2-10.4 80.8-19.7 9.5-9.3 59.5-64.3 67.9-77.1 8.3-12.7 6.8-16.1-1.5-17.8z"/>
		<path id="&lt;Path&gt;" class="s6" d="m133.9 117.1c0.6 0.3 33.7 11.9 59.3 3 25.7-9-1.7-15.5-1.7-15.5 0 0 18.5-6.7 24.6-13.5 6.1-6.8-9.7-6.5-9.7-6.5 0 0 17-9.9 24.3-18.5 7.4-8.7 5.3-12.6-10.9-12.3-16.1 0.4-44.5 1.9-58.7-0.4-14.2-2.3-21-5.5-40.4 3.4-19.4 8.9-30.4 40.2 13.2 60.3z"/>
		<g id="&lt;Group&gt;" style="opacity: .3">
			<path id="&lt;Path&gt;" class="s3" d="m195.2 107.2c0 0 4.4 1.1 8 2.9-1.3-1.5-3.7-2.7-6-3.6-1.2 0.5-2 0.7-2 0.7z"/>
			<path id="&lt;Path&gt;" class="s3" d="m217.5 88c-0.3-1.5-2.2-2.3-4.3-2.8-1.9 1.2-3.1 2-3.1 2 0 0 4.1-0.1 7.4 0.8z"/>
			<path id="&lt;Path&gt;" class="s3" d="m124.4 59.4c19.4-8.9 26.2-5.7 40.4-3.4 14.2 2.2 42.6 0.8 58.7 0.4 5-0.1 8.6 0.2 11 0.9-1.1-2.5-5.7-3.7-14.7-3.5-16.1 0.4-44.5 1.9-58.7-0.4-14.2-2.3-21-5.5-40.4 3.4-17.6 8.1-28.2 34.6 2.4 54.4-26-19.5-15.5-44.1 1.3-51.8z"/>
		</g>
		<path id="&lt;Path&gt;" class="s7" d="m219.8 53.8c-2.1 0.1-4.6 0.2-7.2 0.2q-0.8 2.1-3.1 4.9c-6.5 7.6-21.5 16.3-21.5 16.3 0 0 14-0.2 8.6 5.8-5.4 6-21.7 11.9-21.7 11.9 0 0 24.1 5.7 1.5 13.6-22.7 7.9-51.9-2.4-52.4-2.6-8.3-3.9-14.4-8.2-18.6-12.6 3.3 9 12 18.2 28.5 25.8 0.6 0.3 33.7 11.9 59.3 3 25.7-9-1.7-15.5-1.7-15.5 0 0 18.5-6.7 24.6-13.5 6.1-6.8-9.7-6.5-9.7-6.5 0 0 17-9.9 24.3-18.5 7.4-8.7 5.3-12.6-10.9-12.3z"/>
		<g id="&lt;Group&gt;" style="opacity: .9;mix-blend-mode: overlay">
			<path id="&lt;Path&gt;" class="s3" d="m37.9 53.1c-2.6 8.2-11.3 12.9-19.6 10.3-2.6-0.8-4.8-2.1-6.5-3.9 1.9 2.4 4.5 4.3 7.7 5.3 8.3 2.5 17-2.1 19.6-10.4 1.8-5.7 0.1-11.6-3.9-15.6 3.1 3.9 4.3 9.2 2.7 14.3z"/>
			<path id="&lt;Path&gt;" class="s3" d="m2.2 43.1c3.5-11.3 15.5-17.6 26.7-14.1 3.6 1.1 6.8 3.1 9.2 5.7-2.6-3.3-6.1-5.8-10.4-7.1-11.3-3.5-23.2 2.8-26.7 14.1-2.3 7.6-0.2 15.6 5 21-4.3-5.4-5.9-12.6-3.8-19.6z"/>
		</g>
		<path id="&lt;Path&gt;" class="s0" d="m50.1 28.9l-15.6 16.8 22.9 0.4c0 0-7.9-11.8-7.3-17.2z"/>
		<path id="&lt;Path&gt;" class="s8" d="m51.1 34.2c-5.4 7.5-12 10-16.1 10.9l-0.5 0.6 22.9 0.4c0 0-4.3-6.4-6.3-11.9z"/>
	</g>
</svg>